<svg id="l_d_38901" xmlns="http://www.w3.org/2000/svg" xmlns:xlink="http://www.w3.org/1999/xlink" viewBox="0 0 32 32" width="32" height="32" preserveAspectRatio="xMidYMid meet" style="width: 100%; height: 100%; transform: translate3d(0px, 0px, 0px); content-visibility: visible;"><defs id="l_d_38902"><clipPath id="__lottie_element_16458"><rect id="l_d_38905" width="32" height="32" x="0" y="0"></rect></clipPath></defs><g id="l_d_38903" clip-path="url(#__lottie_element_16458)"><g id="l_d_38906" transform="matrix(0.9942982196807861,0,0,0.9942982196807861,16,16)" opacity="1" style="display: block;"><g id="l_d_38910" opacity="1" transform="matrix(1,0,0,1,0,0)"><path id="l_d_38911" fill="rgb(247,247,247)" fill-opacity="1" d=" M0,-16 C8.830400466918945,-16 16,-8.830400466918945 16,0 C16,8.830400466918945 8.830400466918945,16 0,16 C-8.830400466918945,16 -16,8.830400466918945 -16,0 C-16,-8.830400466918945 -8.830400466918945,-16 0,-16z"></path></g></g><g id="l_d_38920" style="display: none;" transform="matrix(0.054270174354314804,0,0,0.054270174354314804,15.870294570922852,15.924564361572266)" opacity="0.029000000000024784"><g id="l_d_38924" opacity="1" transform="matrix(10,0,0,10,0,0)"><path id="l_d_38925" stroke-linecap="butt" stroke-linejoin="miter" fill-opacity="0" stroke-miterlimit="4" stroke="rgb(255,255,255)" stroke-opacity="1" stroke-width="1.5" d="M0 0"></path></g></g><g id="l_d_38912" transform="matrix(0.9889658093452454,0,0,0.9889658093452454,16,16)" opacity="1" style="display: block;"><g id="l_d_38916" opacity="1" transform="matrix(1,0,0,1,0,0)"><path id="l_d_38917" stroke-linecap="butt" stroke-linejoin="miter" fill-opacity="0" stroke-miterlimit="4" stroke="rgb(34,34,34)" stroke-opacity="1" stroke-width="1.5" d=" M5.25,0 C5.25,0 -5.25,0 -5.25,0 M0,5.25 C0,5.25 0,-5.25 0,-5.25"></path><g id="l_d_38918" opacity="1" transform="matrix(1,0,0,1,0,0)"></g><g id="l_d_38919" opacity="1" transform="matrix(1,0,0,1,0,0)"></g></g></g></g></svg>