<svg id="l_d_3463" xmlns="http://www.w3.org/2000/svg" xmlns:xlink="http://www.w3.org/1999/xlink" viewBox="0 0 32 32" width="32" height="32" preserveAspectRatio="xMidYMid meet" style="width: 100%; height: 100%; transform: translate3d(0px, 0px, 0px); content-visibility: visible;"><defs id="l_d_3464"><clipPath id="__lottie_element_1465"><rect id="l_d_3467" width="32" height="32" x="0" y="0"></rect></clipPath></defs><g id="l_d_3465" clip-path="url(#__lottie_element_1465)"><g id="l_d_3468" transform="matrix(1,0,0,1,16,16)" opacity="1" style="display: block;"><g id="l_d_3472" opacity="1" transform="matrix(1,0,0,1,0,0)"><path id="l_d_3473" fill="rgb(34,34,34)" fill-opacity="1" d=" M0,-16 C8.830400466918945,-16 16,-8.830400466918945 16,0 C16,8.830400466918945 8.830400466918945,16 0,16 C-8.830400466918945,16 -16,8.830400466918945 -16,0 C-16,-8.830400466918945 -8.830400466918945,-16 0,-16z"></path></g></g><g id="l_d_3482" transform="matrix(0.10010898113250732,0,0,0.10010898113250732,15.76073932647705,15.860848426818848)" opacity="1" style="display: block;"><g id="l_d_3486" opacity="1" transform="matrix(10,0,0,10,0,0)"><path id="l_d_3487" stroke-linecap="butt" stroke-linejoin="miter" fill-opacity="0" stroke-miterlimit="4" stroke="rgb(255,255,255)" stroke-opacity="1" stroke-width="1.5" d=" M-5.035999774932861,-0.5230000019073486 C-5.035999774932861,-0.5230000019073486 -1.4989999532699585,2.989000082015991 -1.4989999532699585,2.989000082015991 C-1.4989999532699585,2.989000082015991 4.866000175476074,-3.3269999027252197 5.046999931335449,-3.506999969482422"></path></g></g><g id="l_d_3474" style="display: none;"><g id="l_d_3478"><path id="l_d_3479" stroke-linecap="butt" stroke-linejoin="miter" fill-opacity="0" stroke-miterlimit="4"></path><g id="l_d_3480"></g><g id="l_d_3481"></g></g></g></g></svg>