<svg version="1.0" xmlns="http://www.w3.org/2000/svg"
 width="96.000000pt" height="96.000000pt" viewBox="0 0 96.000000 96.000000"
 preserveAspectRatio="xMidYMid meet">

<g transform="translate(0.000000,96.000000) scale(0.100000,-0.100000)"
fill="#000000" stroke="none">
<path d="M206 895 c-9 -46 -65 -102 -111 -111 -30 -5 -35 -10 -35 -35 0 -22 5
-29 20 -29 27 0 89 26 112 47 17 15 18 14 18 -16 0 -70 -52 -134 -119 -147
-26 -6 -31 -11 -31 -35 0 -22 5 -29 20 -29 27 0 89 26 112 47 17 15 18 12 18
-78 l0 -94 -36 -17 c-40 -21 -67 -23 -95 -7 -20 10 -20 8 -17 -128 3 -155 15
-185 82 -217 51 -24 621 -24 672 0 67 32 79 62 82 217 3 136 3 138 -17 128
-30 -16 -62 -13 -96 9 -38 25 -80 25 -128 0 -47 -25 -74 -25 -112 0 -38 25
-80 25 -128 0 -47 -25 -71 -25 -113 1 l-34 21 0 90 c0 87 1 90 18 75 23 -21
85 -47 112 -47 15 0 20 7 20 29 0 24 -5 30 -30 34 -66 14 -120 80 -120 148 0
30 1 31 18 16 23 -21 85 -47 112 -47 15 0 20 7 20 29 0 24 -5 30 -30 34 -16 4
-41 14 -56 23 -26 18 -64 81 -64 109 0 10 -10 15 -29 15 -25 0 -30 -5 -35 -35z
m81 -556 c46 -28 99 -28 151 2 l42 24 42 -24 c53 -30 103 -30 156 0 l41 24 43
-22 c24 -12 51 -24 61 -27 12 -4 17 -16 17 -46 0 -46 -10 -50 -55 -20 -38 25
-80 25 -128 0 -47 -25 -74 -25 -112 0 -38 25 -80 25 -128 0 -47 -25 -74 -25
-112 0 -38 25 -80 25 -128 0 -51 -28 -57 -26 -57 20 0 30 5 42 18 46 9 3 33
14 52 24 45 25 55 24 97 -1z m0 -150 c46 -28 99 -28 151 2 l42 24 42 -24 c23
-13 58 -24 78 -24 20 0 55 11 78 24 l42 24 39 -22 c22 -13 47 -23 55 -23 28 0
27 -20 -3 -50 l-29 -30 -302 0 -302 0 -29 30 c-31 30 -31 50 -1 50 9 0 31 9
47 20 38 25 50 25 92 -1z"/>
<path d="M675 771 c-36 -16 -67 -58 -72 -99 -17 -128 166 -183 222 -66 24 52
19 90 -18 130 -34 37 -92 53 -132 35z m85 -71 c11 -11 20 -28 20 -38 0 -29
-29 -62 -56 -62 -29 0 -64 32 -64 60 0 11 9 29 20 40 11 11 29 20 40 20 11 0
29 -9 40 -20z"/>
</g>
</svg>
